<svg width="722" height="721" viewBox="0 0 722 721" fill="none" xmlns="http://www.w3.org/2000/svg">
<path fill-rule="evenodd" clip-rule="evenodd" d="M361.002 3.25195C557.999 3.25195 718.438 163.687 718.438 360.367C718.438 557.441 557.999 717.82 361.002 717.82C164.325 717.839 3.58594 557.46 3.58594 360.367C3.58594 163.687 164.325 3.25195 361.002 3.25195Z" stroke="#030000" stroke-width="5.30199" stroke-miterlimit="22.93"/>
<path fill-rule="evenodd" clip-rule="evenodd" d="M361.999 115.268C495.454 115.268 604.024 224.117 604.024 357.841C604.024 363.741 603.724 369.66 603.406 375.561L585.979 374.943L585.36 353.795L600.557 352.877C600.557 352.877 599.621 337.892 598.683 336.019L583.131 336.318L580.339 314.552L592.462 312.08C592.462 312.08 592.144 299.623 587.796 294.041L576.291 298.069L566.922 278.176L580.302 272.257C580.302 272.257 574.061 257.028 571.887 256.41C569.714 255.473 560.644 261.692 560.644 261.692L548.502 242.961L560.326 235.468L560.007 235.168L549.439 221.176L539.49 228.668L525.173 212.185L533.886 203.475C533.886 203.475 521.744 191.973 520.77 191.655C520.151 191.355 512.993 199.747 512.993 199.747L512.693 199.447L495.828 185.755L502.987 177.045C498.553 172.886 493.762 169.127 488.671 165.806L481.138 176.801L462.793 166.218L468.077 154.979C468.077 154.979 455.634 148.76 451.587 147.205C447.539 145.969 451.287 146.287 451.287 146.287L447.239 158.407L425.765 150.914L428.257 138.776C428.257 138.776 416.115 134.112 411.15 133.794L409.594 146.55L387.501 143.272L388.439 130.516L370.712 128.961L369.457 141.698L356.078 142.335L355.459 128.961L337.114 129.897L338.032 143.89C338.032 143.89 321.543 145.126 316.577 147.299L314.403 134.562C314.403 134.562 298.213 137.353 296.977 138.907C295.721 140.78 299.469 150.727 299.469 150.727C299.469 150.727 282.36 158.5 280.169 159.118C278.294 159.437 274.547 147.617 274.547 147.617L257.682 154.773L262.666 166.274L243.366 176.539L235.29 166.274L221.292 175.302L227.813 186.541L212.673 199.859L204.259 190.494L190.186 203.287L198.599 212.297L184.902 227.545L175.889 221.625L164.646 235.936L174.915 242.773L164.646 260.194L153.141 257.084L143.771 272.069L155.596 277.033L148.962 296.57L136.519 294.098L131.235 310.956L142.123 314.065L139.593 335.138H127.113L125.239 351.004L138 353.495V373.088L122.128 374.643L124.002 393.918H123.065C122.447 388.298 120.273 363.441 120.273 357.841C120.273 224.117 228.844 115.268 361.999 115.268ZM603.406 376.198C602.469 380.225 600.614 396.409 600.614 396.409L583.487 393.299C584.124 446.16 559.858 481.618 559.858 481.618C539.245 522.041 498.264 537.813 479.282 546.617C460.3 555.42 420.8 559.972 401.499 564.018C389.49 566.483 378.14 571.47 368.201 578.647C357.614 585.784 360.106 582.394 360.106 582.394C349.537 569.019 309.4 560.928 303.179 559.691C297.276 558.436 243.216 545.062 241.585 544.144C240.031 542.889 198.019 527.96 169.086 490.647C140.155 453.334 139.593 392.663 139.593 392.663L123.102 393.918C140.53 510.54 241.323 600.413 362.036 600.413C489.233 600.413 594.074 501.212 603.406 376.198Z" fill="#C9CACA" stroke="#C9CACA" stroke-width="0.412169" stroke-miterlimit="22.93"/>
<path fill-rule="evenodd" clip-rule="evenodd" d="M484.374 198.265L451.694 180.545C450.084 179.702 318.408 199.895 258.502 225.763C226.141 239.999 196.983 259.911 188.664 288.907L192.186 290.05C192.186 290.05 207.889 252.587 280.257 234.024C315.991 222.742 352.503 214.09 389.502 208.137C420.934 203.205 452.6 199.91 484.374 198.265Z" fill="#E60012" stroke="#E60012" stroke-width="0.412169" stroke-miterlimit="22.93"/>
<path fill-rule="evenodd" clip-rule="evenodd" d="M209.055 514.436L238.661 531.294C238.661 531.294 253.651 530.47 274.114 528.803C314.14 526.031 354.483 522.696 394.171 516.028C427.019 510.765 502.179 495.423 525.921 465.809C525.921 465.809 538.944 454.72 535.684 440.84H531.224C531.224 440.84 530.568 447.789 521.854 456.93C513.385 465.809 496.801 476.636 465.245 484.69C456.776 486.901 448.381 489.13 439.855 491.059C363.59 508.348 288.112 514.436 209.055 514.436Z" fill="#E60012" stroke="#E60012" stroke-width="0.412169" stroke-miterlimit="22.93"/>
<path fill-rule="evenodd" clip-rule="evenodd" d="M502.852 206.77C503.19 207.407 295.249 222.786 232.776 264.426C182.801 297.412 193.426 328.787 258.41 352.164C258.41 352.164 301.659 363.066 305.256 363.066C308.46 363.066 288.916 414.296 288.916 414.296L355.887 420.066L375.094 368.816C375.75 367.224 294.687 350.572 277.392 340.963C259.759 331.353 211.058 312.865 270.346 292.261C322.814 274.335 389.204 262.796 455.2 263.433C457.693 260.492 502.216 205.74 502.852 206.77Z" fill="#E60012" stroke="#E60012" stroke-width="0.412169" stroke-miterlimit="22.93"/>
<path fill-rule="evenodd" clip-rule="evenodd" d="M193.447 500.181C193.766 501.455 239.263 509.453 297.577 503.047C360.051 496.323 436.241 485.121 492.043 452.135C497.178 448.932 501.413 445.729 504.861 443.481C572.787 404.726 419.639 351.247 384.392 348.999C380.868 348.999 402.024 297.769 402.024 297.769L335.053 292L315.846 343.249C314.872 346.452 335.053 349.337 356.846 354.488C379.595 359.302 404.273 366.663 412.911 370.185C429.251 376.591 476.997 394.199 420.276 416.302C368.071 436.794 305.972 433.909 239.9 433.591C237.351 436.438 193.129 499.207 193.447 500.181Z" fill="#E60012" stroke="#E60012" stroke-width="0.412169" stroke-miterlimit="22.93"/>
<path fill-rule="evenodd" clip-rule="evenodd" d="M416.509 40.6602C417.146 43.8633 420.988 48.0404 425.465 49.3141L431.556 51.1873C430.6 53.7348 414.26 66.8655 411.693 68.7949C406.577 72.3164 404.966 71.0427 398.576 71.0427C393.527 71.2669 388.473 70.7237 383.586 69.4317C384.222 74.8826 387.426 78.0856 394.473 80.3336L400.562 82.2066C404.086 83.4806 415.553 81.8886 419.788 81.8886C422.993 81.5696 426.178 81.5696 429.382 81.5696C431.95 81.8886 438.039 83.1616 438.751 80.2956L440.045 76.4376C440.363 75.4816 440.045 75.1636 439.726 74.2083C435.865 73.2342 433.317 69.7127 427.546 70.3496C424.023 70.6867 419.863 71.6421 415.685 70.6867V69.7127C420.501 65.8728 448.683 54.0157 449.657 51.1498L450.295 49.5389C451.25 46.9727 447.09 43.7696 444.204 42.8143C442.93 42.4959 433.955 43.1327 431.388 43.1327C426.382 42.6062 421.415 41.7805 416.509 40.6602Z" fill="#231815"/>
<path fill-rule="evenodd" clip-rule="evenodd" d="M299.707 54.1081C299.388 50.905 299.388 48.9944 301 47.0651C302.475 45.418 304.202 44.0145 306.116 42.9067C304.522 48.0204 306.434 53.1528 299.707 54.1456V54.1081ZM307.728 41.6142C308.046 39.3851 315.091 36.1821 317.658 35.208C317.977 39.3851 315.091 48.676 311.568 49.6313C311.25 47.0651 311.887 46.4282 311.568 44.1804L311.25 41.9326L307.728 41.5955V41.6142ZM297.159 43.2251L293.242 43.8058V60.7765C293.918 62.4571 295.615 63.4986 297.421 63.3427L298.695 63.0243C299.97 63.0243 301.262 60.1396 300.944 58.8659C302.537 58.5474 303.492 58.8659 303.829 60.1396V60.4581C303.921 63.4969 302.496 66.3825 300.026 68.1567C300.344 70.3857 301.899 70.7042 302.912 72.3151C303.23 73.2704 304.204 77.4283 304.522 79.0393C304.841 83.1983 299.707 82.2423 300.026 84.1533C300.026 85.4463 303.548 86.0263 304.522 92.1703V93.1253C304.841 94.4183 302.912 99.2133 302.275 100.487C304.148 102.098 306.434 104.027 309.638 103.372L318.615 102.098C321.819 101.779 325.023 99.8503 324.704 96.9653L324.386 96.3293C324.067 94.1003 322.774 94.1003 321.182 93.4443C318.615 94.4183 315.728 96.3293 313.162 96.6473L312.524 96.9653C310.703 96.8443 309.179 95.5413 308.776 93.7623V93.1253C308.14 89.6043 317.115 82.5613 316.797 80.0133L316.459 77.1293C314.866 77.1293 314.585 76.8103 312.936 76.8103L308.458 77.7663C307.821 76.8103 307.821 77.1293 307.821 76.1733C307.502 73.926 309.095 72.0154 309.413 70.086C310.388 65.2908 308.776 67.5198 312.617 64.6352C314.492 63.6799 314.866 61.7693 315.823 59.8399C317.696 56.3184 319.027 57.5921 319.982 55.3631C321.856 50.5491 319.663 48.6385 323.186 42.5508C324.479 40.303 328.957 33.8968 328.639 31.3119L328.32 29.4387C328.309 27.256 326.53 25.4961 324.346 25.5079C324.069 25.5094 323.793 25.5398 323.523 25.5988H322.549C322.231 25.5988 316.459 28.8019 315.185 29.1203C313.021 30.5401 310.982 32.1445 309.095 33.9156C307.221 35.5265 305.348 36.4818 303.005 38.4111C301.637 39.7036 299.07 42.9067 297.159 43.2251Z" fill="#231815"/>
<path fill-rule="evenodd" clip-rule="evenodd" d="M267.012 58.9238V59.2422C267.012 60.516 270.216 62.1269 271.828 61.8084L272.146 62.1269L279.191 60.2537L279.511 61.5462L280.129 73.9652C278.255 77.711 278.536 76.85 274.376 79.098C271.809 80.371 269.561 82.301 267.312 83.256C267.69 85.192 269.546 86.472 271.491 86.141L273.364 85.822C275.238 85.504 275.931 84.867 277.862 84.548L278.498 89.025C278.57 91.808 277.923 94.562 276.624 97.024C274.751 100.227 272.146 100.227 271.51 102.793C273.739 103.43 275.987 105.359 278.236 105.041L280.11 104.722C284.926 104.085 285.245 93.184 286.519 89.344C287.493 86.777 292.608 74.3585 292.29 72.6914C291.971 70.8183 288.767 72.0546 287.174 72.373C286.326 71.2826 285.771 69.9928 285.563 68.6267L285.245 66.0605C283.97 58.699 289.723 55.1775 289.086 50.3635V48.6777C288.767 46.8045 287.493 46.4299 285.882 45.793C283.052 48.0221 266.712 56.3576 267.012 58.9238Z" fill="#231815"/>
<path fill-rule="evenodd" clip-rule="evenodd" d="M123.385 266.711C119.206 264.463 113.135 253.599 110.568 250.059C105.115 242.36 105.433 240.693 105.433 231.477C106.389 231.159 111.523 229.604 112.48 230.185C125.596 237.246 131.705 251.651 124.659 264.145L123.385 266.711ZM60.8922 194.895C68.575 199.053 76.2578 202.575 83.3783 207.051C87.2385 209.936 89.7869 210.91 89.1498 215.068C88.5937 218.627 87.8493 222.153 86.9199 225.633L90.1241 227.506C91.998 228.461 93.8718 228.461 94.9212 226.532C96.1955 223.985 95.5583 221.1 97.1698 218.215L102.604 221.737L103.896 222.374C102.286 225.258 98.1255 223.985 95.8768 227.825L95.2397 229.098L99.3997 231.346C101.011 232.301 101.649 237.434 102.286 239.026C103.595 241.596 105.099 244.063 106.782 246.406C108.375 249.928 113.51 258.563 112.536 262.084L111.579 261.448C99.0811 254.405 93.3097 232.62 86.5826 229.098C84.3528 227.825 81.7855 227.506 80.5114 229.735L79.8555 231.028C78.8999 232.62 79.8555 249.591 78.2627 254.405L79.8555 255.36C82.5499 256.915 85.9802 256.235 87.8756 253.768C89.1498 251.52 88.5126 247.043 88.5126 244.795C91.7169 246.668 98.7626 255.041 101.63 258.244C105.152 262.084 110.605 268.172 116.039 271.057L118.607 272.649C121.811 274.26 124.696 274.26 126.627 272.012L124.378 268.809L128.125 262.403L129.082 260.811C132.623 254.086 132.623 245.114 130.056 240C127.807 235.186 122.036 227.188 115.627 223.666C115.627 220.782 115.309 211.491 116.92 208.681C118.195 209.318 123.647 209.955 124.284 208.681L125.24 206.808C126.228 205.377 125.869 203.417 124.438 202.43C124.387 202.397 124.336 202.363 124.284 202.331C119.806 199.765 104.422 202.013 101.217 207.463C103.466 208.1 106.67 207.463 108.263 208.419C111.467 210.292 114.034 218.028 113.079 221.231C110.512 218.983 107.626 216.736 104.74 214.506C103.574 213.345 102.322 212.274 100.992 211.303C98.4253 209.43 97.7882 210.011 98.7438 207.126C100.037 202.331 103.241 191.448 98.1068 188.882C94.9025 187.009 92.3353 190.474 92.3353 193.677C92.0167 196.88 92.6539 199.446 91.0611 203.043L71.1983 188.638L69.3245 187.664C66.7574 186.072 59.9554 190.867 58.4375 193.752L60.8922 194.895Z" fill="#231815"/>
<path fill-rule="evenodd" clip-rule="evenodd" d="M155.402 219.227C157.014 216.024 155.74 204.504 153.528 203.211C147.438 224.678 128.85 215.387 121.805 223.385C124.69 224.678 136.551 224.996 139.756 224.996C144.197 225.315 152.854 224.359 155.402 219.227Z" fill="#231815"/>
<path fill-rule="evenodd" clip-rule="evenodd" d="M566.825 92.9384C562.553 99.0634 564.22 102.716 555.694 110.171L545.107 119.724C538.98 124.763 531.99 119.481 526.368 116.54C522.958 114.667 510.516 108.729 508.136 105.994C506.937 104.627 506.75 102.697 505.55 101.33C502.271 97.5844 495.488 107.699 498.505 110.789L500.885 113.524C505.644 118.994 522.865 120.792 532.065 127.179C529.704 128.959 517.318 131.656 514.77 131.469C509.017 131.094 501.428 124.482 497.756 126.486C498.036 127.142 497.756 127.123 498.336 127.479L501.297 131.225C505.175 135.665 517.393 140.01 521.909 140.01C529.85 139.814 537.491 136.935 543.59 131.843C545.725 133.267 569.223 137.463 571.585 135.59C572.594 134.317 572.439 132.478 571.229 131.394L570.629 130.72C565.851 125.25 555.638 129.708 551.891 126.973L567.256 113.262C568.942 112.082 569.86 112.794 571.229 111.595L571.903 110.995C573.983 108.897 572.821 97.5844 570.029 94.8304C568.999 93.0884 568.062 92.6954 566.825 92.9384Z" fill="#231815"/>
<path fill-rule="evenodd" clip-rule="evenodd" d="M531.077 164.999L533.757 168.071C535.868 170.484 538.99 171.767 542.189 171.536C544.062 166.516 544.344 154.023 539.565 148.553C538.835 149.789 538.74 151.4 537.991 152.955C537.26 154.191 535.892 155.371 534.824 156.907C533.401 159.061 529.578 163.295 531.077 164.999Z" fill="#231815"/>
<path fill-rule="evenodd" clip-rule="evenodd" d="M654.188 233.819C655.799 233.182 666.049 234.774 667.004 236.703C667.642 237.996 667.323 238.951 668.279 240.543L671.82 246.949L670.528 247.586C668.279 248.879 656.117 246.313 654.506 244.72C658.684 244.383 660.278 237.34 659.959 235.111L658.085 236.066L653.868 238.614C652.913 236.741 652.913 234.437 654.188 233.8V233.819ZM662.526 219.096V220.688C663.163 221.662 663.8 221.325 664.4 222.561L665.056 223.835L661.851 225.446C661.195 226.083 660.877 226.401 661.195 227.038L661.851 227.993C662.933 229.407 664.368 230.511 666.011 231.196C663.763 231.533 657.036 229.323 655.124 227.993L653.25 224.153L649.728 223.198L650.046 223.516L649.091 227.038C647.479 227.038 641.708 224.472 641.071 224.79L640.433 225.127C639.796 225.446 639.478 225.764 639.796 226.719L641.071 228.967C642.045 230.84 648.116 230.241 649.091 232.17C649.728 233.126 648.453 235.917 648.773 237.94C647.161 237.94 647.161 237.284 645.567 238.258C644.912 238.576 644.912 239.532 644.593 240.131L647.797 245.9C647.161 245.9 630.184 232.133 628.254 230.522C625.368 228.649 610.32 215.537 608.391 215.799C611.595 222.205 610.958 223.16 615.436 228.911C619.297 233.388 620.889 235.636 625.049 238.52C631.776 243.315 638.841 245.882 645.886 251.333C641.708 252.925 629.865 243.952 627.935 244.926C627.038 245.889 626.906 247.339 627.617 248.448V248.766C630.821 254.536 644.912 263.752 650.683 260.942C652.52 260.157 653.372 258.033 652.587 256.197C652.578 256.173 652.568 256.15 652.557 256.128C652.239 254.255 651.92 251.651 651.583 250.359L652.239 250.04C655.124 253.88 676.599 259.406 681.058 257.083L681.714 256.765C683.944 255.809 682.351 251.014 681.058 248.448C679.185 244.608 675.625 242.36 674.013 239.082L671.764 235.111C676.243 234.137 682.651 236.703 688.422 233.819L689.379 233.5C690.48 232.843 690.894 231.451 690.334 230.297C688.741 227.094 685.537 228.705 682.969 228.705C680.412 228.864 677.844 228.864 675.287 228.705C670.528 228.386 667.004 219.733 662.526 219.096Z" fill="#231815"/>
<path fill-rule="evenodd" clip-rule="evenodd" d="M590.119 215.574L588.507 216.211C585.94 217.485 582.099 222.936 583.391 225.183C585.94 230.297 602.28 238.614 608.052 247.98L605.165 249.572L602.28 251.183C593.96 255.341 589.801 244.439 587.87 245.413L586.915 245.732C585.303 246.369 585.94 250.527 586.915 252.138L587.552 253.73C589.801 258.226 596.209 262.703 600.369 260.455L602.242 259.499C606.421 257.626 608.015 254.049 610.581 252.456L611.537 252.138C613.41 255.66 618.582 263.021 622.106 261.504L623.716 260.848L626.284 258.975L622.443 251.295C618.511 244.018 613.174 237.593 606.74 232.395C602.599 228.705 593.061 220.688 590.119 215.574Z" fill="#231815"/>
<path fill-rule="evenodd" clip-rule="evenodd" d="M632.07 217.803C632.07 218.122 631.113 219.096 631.432 219.676C633.306 222.879 639.452 225.127 642.338 223.835C647.772 220.95 653.225 201.357 651.951 195.344C646.816 202.443 642.019 212.69 632.07 217.803Z" fill="#231815"/>
<path fill-rule="evenodd" clip-rule="evenodd" d="M625.686 206.283L623.119 207.557C620.233 208.85 617.029 211.303 618.303 214.282L618.622 214.919C620.233 217.803 625.031 215.574 626.961 213.645C628.844 211.406 629.867 208.57 629.847 205.646C628.428 205.384 626.963 205.609 625.686 206.283Z" fill="#231815"/>
<path fill-rule="evenodd" clip-rule="evenodd" d="M177.683 135.796C175.622 132.537 171.556 129.596 168.67 131.394C164.716 133.66 168.37 141.078 171.294 145.124C175.678 152.017 168.783 152.504 172.005 158.555L175.416 157.487C177.683 153.741 177.29 153.591 182.518 151.867C182.331 149.607 181.935 147.368 181.337 145.18C181.018 143.176 181.805 140.385 181.337 138.699L182.067 138.175L186.134 139.167V139.486L189.338 137.725C191.493 136.47 192.711 133.098 191.381 131.244C189.87 131.132 188.357 131.132 186.846 131.244C186.467 126.013 188.902 120.975 193.236 118.02L194.51 120.174C197.901 125.269 199.232 132.949 200.675 138.062C202.549 146.154 201.275 148.215 200.824 154.921C202.567 156.176 204.254 157.749 206.447 156.494L207.177 155.951C213.698 151.83 208.02 136.957 206.221 130.158C205.303 125.793 203.767 121.316 202.286 116.54C201.537 115.116 200 110.639 198.839 109.796C197.939 109.328 193.461 108.916 192.374 109.796L191.624 110.321C189.113 111.857 188.289 118.863 184.279 121.447C183.977 120.155 183.537 118.899 182.967 117.701L181.899 116.221C181.112 115.116 179.05 113.805 178.001 114.348L176.896 115.135C170.375 119.012 186.096 129.97 177.683 135.796Z" fill="#231815"/>
<path fill-rule="evenodd" clip-rule="evenodd" d="M149.707 132.182L150.456 133.605C151.188 135.029 153.511 134.748 154.935 134.017C160.032 130.627 163.836 117.29 169.683 113.413L170.263 113.825L166.852 124.633L167.116 124.989C171.125 122.404 186.772 88.2937 185.853 86.1957L185.31 85.4647C182.986 82.6427 178.932 81.9787 175.829 83.9107H175.51C174.404 84.6967 163.873 105.377 162.393 108.055C160.241 112.291 157.517 116.212 154.298 119.706C151.581 122.76 147.084 128.192 149.707 132.182Z" fill="#231815"/>
<path fill-rule="evenodd" clip-rule="evenodd" d="M165.396 171.181L165.977 171.593C168.582 175.601 173.323 178.317 176.958 175.995C178.363 175.245 178.42 171.049 177.352 169.57L176.883 168.521C175.29 166.31 167.327 163.388 165.64 163.444C164.461 165.87 164.373 168.686 165.396 171.181Z" fill="#231815"/>
<path fill-rule="evenodd" clip-rule="evenodd" d="M184.43 156.045C187.073 159.791 190.857 160.353 194.868 157.749C197.378 156.232 199.065 154.003 197.529 151.38L196.741 150.275C193.406 144.955 187.428 153.609 184.43 156.045Z" fill="#231815"/>
<path fill-rule="evenodd" clip-rule="evenodd" d="M58.0012 297.207C61.099 297.299 63.5381 299.88 63.4541 302.976C63.4541 306.08 60.9373 308.596 57.8325 308.596C54.7278 308.596 52.2111 306.08 52.2111 302.976C52.1903 299.811 54.7403 297.228 57.9072 297.207C57.9384 297.207 57.9699 297.207 58.0012 297.207Z" fill="#231815" stroke="#231815" stroke-width="0.936747" stroke-miterlimit="22.93"/>
<path fill-rule="evenodd" clip-rule="evenodd" d="M661.322 297.693C664.499 297.682 667.082 300.248 667.093 303.425C667.093 303.438 667.093 303.449 667.093 303.462C666.992 306.551 664.411 308.979 661.322 308.894C658.354 308.806 655.966 306.427 655.869 303.462C655.784 300.366 658.224 297.785 661.322 297.693Z" fill="#231815" stroke="#231815" stroke-width="0.936747" stroke-miterlimit="22.93"/>
<path fill-rule="evenodd" clip-rule="evenodd" d="M73.403 380.205L62.9656 380.655V379.718C65.3756 379.319 67.5771 378.111 69.2055 376.29C70.673 374.743 71.4913 372.692 71.4917 370.558C71.5492 369.185 71.0722 367.842 70.1612 366.812C69.4244 365.971 68.3569 365.492 67.238 365.501C66.5764 365.495 65.9267 365.677 65.3642 366.025C64.5187 366.606 63.7985 367.352 63.2467 368.217C62.2872 369.854 61.4177 371.542 60.6421 373.275C59.5261 376.086 57.842 378.635 55.6951 380.767C54.1804 382.071 52.2591 382.805 50.261 382.846C47.6733 382.904 45.1893 381.829 43.459 379.905C41.4918 377.822 40.4219 375.052 40.4796 372.188C40.4541 371.251 40.5358 370.315 40.7232 369.397C40.9724 368.254 41.3299 367.138 41.7913 366.063C42.0581 365.475 42.1984 364.836 42.2035 364.19C42.178 363.731 42.0075 363.291 41.7163 362.935C41.3469 362.45 40.8462 362.079 40.2734 361.867V361.062L52.0974 360.837V361.642C49.224 362.148 46.5936 363.575 44.602 365.707C43.0204 367.436 42.1445 369.695 42.1473 372.038C42.1036 373.546 42.6401 375.015 43.6464 376.14C44.4813 377.096 45.6939 377.637 46.963 377.62C47.713 377.6 48.444 377.38 49.0805 376.983C49.8213 376.487 50.4578 375.85 50.9544 375.11C51.8916 373.769 52.7067 372.345 53.3903 370.858C54.3452 368.68 55.5059 366.597 56.857 364.639C57.7322 363.459 58.8342 362.466 60.0987 361.717C61.3232 361.024 62.702 360.651 64.1088 360.631C66.5254 360.56 68.86 361.511 70.536 363.253C72.3446 365.081 73.344 367.558 73.3093 370.128C73.3363 371.124 73.229 372.119 72.9907 373.087C72.7562 374.007 72.4364 374.904 72.0351 375.766C71.6647 376.446 71.4235 377.189 71.323 377.957C71.3138 378.311 71.4572 378.652 71.7165 378.894C72.2826 379.244 72.926 379.45 73.5904 379.493V380.205H73.403ZM58.1498 396.314L59.6115 407.328L49.9612 408.621C48.993 408.812 48.0021 408.862 47.0192 408.771C46.5315 408.641 46.0981 408.359 45.7826 407.965C45.3517 407.343 45.0873 406.62 45.0143 405.867L44.8831 404.874L44.0773 404.968L46.251 421.133L47.038 421.04L46.9069 420.028C46.7769 419.313 46.8419 418.575 47.0943 417.893C47.2567 417.417 47.5731 417.009 47.9937 416.732C48.9414 416.364 49.9398 416.143 50.9544 416.076L71.4355 413.341C72.4023 413.139 73.3949 413.088 74.3773 413.191C74.8647 413.311 75.2995 413.587 75.6141 413.978C76.0577 414.594 76.3236 415.319 76.3824 416.076L76.5322 417.087L77.3192 416.975L75.1643 400.829L74.3586 400.922L74.4898 401.934C74.6342 402.647 74.5758 403.387 74.3211 404.069C74.1525 404.541 73.8375 404.949 73.4217 405.23C72.4671 405.598 71.4628 405.819 70.4423 405.886L61.6352 407.066L60.1549 396.052L68.9807 394.872C69.9431 394.683 70.9284 394.638 71.9038 394.741C72.3972 394.846 72.8363 395.125 73.1406 395.527C73.5797 396.14 73.851 396.857 73.9276 397.607L74.0588 398.637L74.8458 398.525L72.6909 382.359L71.8851 382.472L72.0351 383.483C72.1677 384.199 72.1029 384.937 71.8477 385.619C71.6801 386.092 71.3649 386.499 70.9482 386.78C69.9888 387.13 68.9867 387.351 67.9688 387.435L47.4877 390.17C46.5253 390.359 45.5401 390.404 44.5645 390.301C44.0706 390.21 43.6293 389.936 43.3278 389.533C42.8888 388.913 42.6178 388.19 42.5408 387.435L42.4096 386.405L41.6226 386.518L43.7775 402.683L44.5832 402.571L44.4334 401.54C44.3029 400.838 44.3678 400.111 44.6207 399.442C44.7832 398.967 45.0997 398.558 45.5202 398.281C46.4749 397.912 47.4787 397.685 48.4996 397.607L58.1498 396.314ZM60.0237 439.603L57.5502 428.926L54.271 428.289C53.4046 428.122 52.5142 428.122 51.6476 428.289C50.8507 428.424 50.198 428.997 49.9612 429.769C49.8276 430.806 49.8784 431.859 50.1111 432.878L49.3241 433.065L46.9818 422.932L47.7501 422.744C48.1143 423.702 48.7781 424.516 49.6427 425.067C51.3132 425.829 53.0877 426.341 54.9081 426.584L81.7603 431.848L81.854 432.279L59.3679 449.137C57.8564 450.113 56.5252 451.342 55.4328 452.771C55.0659 453.494 54.9537 454.318 55.1142 455.112L54.3272 455.3L50.9169 440.558L51.7039 440.371L51.835 440.97C51.964 441.85 52.341 442.675 52.9219 443.349C53.2419 443.622 53.6769 443.722 54.0836 443.611C54.3734 443.54 54.6513 443.426 54.9081 443.274C55.0206 443.274 55.5453 442.862 56.4634 442.206L59.8738 439.659L60.0237 439.603ZM61.5228 438.498L70.8921 431.529L59.4053 429.282L61.5415 438.498H61.5228ZM70.2549 471.334L66.2074 461.144L62.8532 461.013C61.9716 460.962 61.088 461.076 60.2486 461.35C59.4848 461.612 58.929 462.275 58.8057 463.073C58.8318 464.118 59.0411 465.152 59.4241 466.126L58.6745 466.426L54.8332 456.761L55.564 456.461C56.0885 457.388 56.915 458.109 57.9063 458.503C59.6714 459.014 61.503 459.259 63.3405 459.233L90.6798 460.357L90.8484 460.769L71.1918 480.774C69.8496 481.966 68.7216 483.378 67.8564 484.952C67.5848 485.721 67.5848 486.561 67.8564 487.331L67.1069 487.63L61.4853 473.563L62.2162 473.263L62.4597 473.844C62.7138 474.696 63.2083 475.457 63.8839 476.035C64.2528 476.232 64.6954 476.232 65.0644 476.035C65.3381 475.917 65.5964 475.768 65.8326 475.586C66.3103 475.179 66.7667 474.747 67.2005 474.293L70.1987 471.259L70.2549 471.334ZM71.5666 470.004L79.7552 461.706L68.0625 461.219L71.5666 470.004ZM100.442 484.802L95.3269 474.949L94.6148 475.324C94.9745 475.989 95.1854 476.723 95.2332 477.478C95.1607 478.291 94.9249 479.081 94.5399 479.8L94.1277 480.756L74.4711 491.002C73.3955 491.697 72.0963 491.957 70.8358 491.732C69.6422 491.2 68.7017 490.228 68.2124 489.016L67.5003 489.391L72.6534 499.281L73.3655 498.925L73.0281 498.27C72.541 497.357 72.3759 496.308 72.5598 495.291C72.7471 494.261 73.6466 493.418 75.2581 492.5L92.9846 483.284L79.6241 514.098L79.9801 514.791L103.085 502.728C104.006 502.186 105.014 501.806 106.064 501.604C106.642 501.54 107.224 501.658 107.731 501.941C108.47 502.516 109.103 503.213 109.606 504.001L110.317 503.627L105.539 494.448L104.827 494.823C105.616 495.969 105.823 497.417 105.389 498.738C104.662 499.864 103.601 500.737 102.354 501.229L90.4174 507.429L100.499 484.783L100.442 484.802ZM109.474 526.742L103.272 540.884C102.504 542.369 101.937 543.95 101.586 545.585C101.514 546.368 101.67 547.155 102.035 547.852L101.361 548.283L93.1533 535.377L93.8278 534.946C94.2515 535.645 94.8444 536.223 95.5518 536.632C95.934 536.787 96.3684 536.746 96.7135 536.519C96.9416 536.401 97.1303 536.218 97.2569 535.995C97.7691 535.103 98.22 534.176 98.6061 533.223L101.829 525.73L94.3337 524.812C92.9402 524.496 91.4889 524.542 90.1176 524.943C89.7258 525.213 89.4511 525.621 89.3494 526.086C89.218 526.713 89.2767 527.365 89.518 527.959C89.7674 528.581 90.0882 529.171 90.4736 529.72L89.7991 530.151L83.3718 520.017L84.0463 519.586C84.7701 520.487 85.6854 521.218 86.726 521.721C88.7058 522.375 90.7566 522.789 92.8347 522.958L102.541 524.157L108.162 511.045C109.1 508.909 109.624 507.692 109.699 507.411C109.897 506.897 109.992 506.35 109.98 505.8C109.905 505.223 109.741 504.659 109.493 504.133L110.168 503.702L118.506 516.814L117.832 517.245L117.401 516.589C117.108 516.001 116.627 515.525 116.032 515.24C115.636 515.083 115.187 515.132 114.834 515.372C114.577 515.533 114.354 515.742 114.178 515.99L112.978 518.631L110.168 525.037L115.246 525.674C116.922 526.047 118.665 525.975 120.305 525.468C120.659 525.239 120.939 524.915 121.111 524.531C121.284 524.117 121.336 523.662 121.261 523.22C121.096 522.546 120.804 521.911 120.399 521.347L121.073 520.916L127.258 530.638L126.582 531.068C126.186 530.439 125.693 529.877 125.121 529.401C124.552 529.006 123.917 528.714 123.247 528.54C122.723 528.39 121.186 528.184 118.693 527.865L109.531 526.742H109.474ZM114.965 563.699L114.328 562.893C113.87 562.356 113.553 561.711 113.409 561.02C113.323 560.518 113.395 560.001 113.615 559.54C114.26 558.754 115.01 558.059 115.845 557.48L132.185 544.836C132.917 544.177 133.744 543.634 134.64 543.225C135.115 543.072 135.627 543.072 136.102 543.225C136.793 543.536 137.389 544.029 137.825 544.649L138.463 545.473L139.1 544.967L129.093 532.08L128.456 532.586L129.093 533.391C129.556 533.925 129.873 534.571 130.012 535.264C130.1 535.761 130.028 536.272 129.805 536.725C129.167 537.518 128.416 538.213 127.576 538.786L111.236 551.448C110.499 552.104 109.664 552.642 108.763 553.04C108.296 553.211 107.785 553.211 107.319 553.04C106.627 552.73 106.032 552.239 105.595 551.617L104.958 550.812L104.321 551.298L114.328 564.186L114.965 563.68V563.699ZM153.079 560.795L164.827 571.922L164.265 572.503L163.685 571.941C163.102 571.309 162.385 570.817 161.586 570.498C161.114 570.369 160.613 570.401 160.162 570.592C159.204 571.21 158.346 571.967 157.614 572.84L147.083 583.966C145.698 585.244 144.556 586.761 143.71 588.443C143.408 589.445 143.408 590.513 143.71 591.515C144.076 592.748 144.784 593.853 145.752 594.699C146.826 595.784 148.193 596.533 149.687 596.853C151.069 597.118 152.499 596.96 153.79 596.404C155.866 595.256 157.714 593.738 159.243 591.927L168.032 582.674C168.79 581.971 169.39 581.115 169.793 580.164C169.968 579.622 169.968 579.038 169.793 578.497C169.395 577.569 168.793 576.743 168.032 576.08L168.576 575.5L176.427 582.992L175.883 583.573L175.415 583.123C174.898 582.593 174.252 582.205 173.541 581.999C172.845 581.868 172.127 581.973 171.499 582.299C170.726 582.769 170.03 583.357 169.437 584.041L161.192 592.639C159.421 594.643 157.408 596.417 155.196 597.921C153.461 598.798 151.488 599.088 149.575 598.745C146.907 598.266 144.46 596.955 142.585 594.999C140.981 593.585 139.702 591.841 138.838 589.885C138.083 588.112 137.912 586.143 138.351 584.266C139.018 582.224 140.175 580.379 141.723 578.89L152.273 567.763C153.115 566.995 153.83 566.096 154.391 565.104C154.549 564.622 154.549 564.105 154.391 563.624C153.982 562.786 153.394 562.05 152.667 561.47L153.21 560.889L153.079 560.795ZM187.314 591.028L178.244 584.603L177.794 585.259C178.408 585.69 178.926 586.246 179.313 586.888C179.623 587.643 179.782 588.451 179.781 589.267V590.316L166.945 608.373C166.134 610.344 163.878 611.284 161.906 610.473C161.368 610.252 160.887 609.911 160.499 609.478L160.031 610.134L169.119 616.596L169.587 615.941L168.988 615.51C168.14 614.924 167.518 614.064 167.226 613.075C166.987 611.722 167.396 610.334 168.332 609.329L179.912 593.032L182.03 626.58L182.667 627.03L197.845 605.751C198.418 604.856 199.141 604.063 199.981 603.409C200.461 603.083 201.03 602.913 201.611 602.922C202.516 603.119 203.382 603.46 204.178 603.934L204.647 603.278L196.196 597.284L195.727 597.94C196.949 598.599 197.795 599.791 198.014 601.162C197.881 602.497 197.337 603.762 196.458 604.777L188.663 615.753L187.314 590.99V591.028ZM203.242 637.857L202.847 638.568L188.625 630.57L189.019 629.877L189.919 630.383C190.569 630.78 191.312 630.999 192.073 631.02C192.57 631.005 193.046 630.821 193.423 630.495C194.087 629.776 194.644 628.961 195.072 628.079L205.209 610.059C205.758 609.203 206.187 608.278 206.483 607.306C206.511 606.804 206.38 606.305 206.109 605.882C205.704 605.277 205.147 604.786 204.497 604.458L203.598 603.953L203.991 603.26L218.213 611.258L217.82 611.951L216.921 611.445C216.275 611.05 215.539 610.829 214.784 610.808C214.286 610.827 213.807 611.005 213.416 611.314C212.753 612.043 212.197 612.863 211.768 613.749L201.63 631.75C201.074 632.606 200.65 633.541 200.375 634.522C200.347 635.024 200.478 635.523 200.75 635.946C201.139 636.555 201.69 637.04 202.342 637.351L203.242 637.857ZM248.588 627.273L248.213 627.985C247.045 627.633 245.787 627.714 244.672 628.21C242.854 629.201 241.146 630.383 239.575 631.731L218.963 648.028L218.288 647.672L220.312 620.624C220.546 618.666 220.595 616.69 220.462 614.723C220.153 613.85 219.533 613.124 218.719 612.682L219.094 611.97L232.361 618.863L231.986 619.575L231.536 619.35C230.737 618.82 229.799 618.533 228.838 618.526C228.424 618.558 228.063 618.818 227.901 619.2C227.746 619.505 227.637 619.835 227.583 620.174C227.583 620.568 227.433 621.654 227.283 623.471L226.027 640.329L237.87 630.87C238.85 630.122 239.789 629.323 240.68 628.472C241.033 628.122 241.335 627.725 241.58 627.292C241.796 626.904 241.882 626.459 241.824 626.018C241.76 625.563 241.558 625.136 241.243 624.801C240.628 624.147 239.897 623.613 239.088 623.227L239.463 622.516L248.551 627.236L248.588 627.273ZM258.164 632.181L261.218 633.38C262.753 633.899 264.209 634.624 265.547 635.534C266.65 636.364 267.478 637.506 267.927 638.812C268.345 640.522 268.345 642.309 267.927 644.019L268.77 644.356L272.161 635.74L247.801 626.15L247.502 626.899L248.457 627.273C249.269 627.545 249.971 628.069 250.462 628.772C250.743 629.21 250.855 629.737 250.781 630.252C250.575 631.106 250.294 631.939 249.938 632.743L242.442 651.961C242.133 652.9 241.693 653.79 241.131 654.603C240.801 654.977 240.349 655.223 239.856 655.296C239.103 655.372 238.343 655.256 237.645 654.958L236.671 654.584L236.39 655.333L261.387 665.205L266.334 656.457L265.528 656.139C264.134 658.193 262.097 659.728 259.738 660.503C257.298 661.082 254.735 660.838 252.449 659.81L250.706 659.117C250.067 658.922 249.49 658.561 249.039 658.068C248.762 657.736 248.61 657.319 248.607 656.888C248.813 655.85 249.134 654.839 249.563 653.872L252.786 645.668C253.902 646.07 254.918 646.709 255.765 647.541C256.413 648.376 256.792 649.39 256.852 650.444C256.96 651.969 256.782 653.499 256.327 654.958L257.171 655.296L263.167 640.029L262.323 639.692C261.531 641.476 260.293 643.023 258.726 644.188C257.28 645.031 255.507 645.094 254.003 644.356L253.423 644.113L258.089 632.237L258.164 632.181ZM280.743 655.914L278.758 664.53C278.444 665.56 278.311 666.638 278.363 667.715C278.481 668.222 278.775 668.672 279.188 668.988C280.037 669.507 280.979 669.856 281.962 670.019L281.793 670.805L266.165 667.228L266.334 666.441C267.298 666.731 268.313 666.821 269.313 666.703C269.813 666.587 270.265 666.319 270.606 665.935C271.11 664.987 271.451 663.961 271.618 662.901L276.209 642.952C276.522 641.921 276.655 640.844 276.603 639.767C276.485 639.26 276.192 638.81 275.777 638.494C274.929 637.975 273.987 637.626 273.004 637.463L273.173 636.677L287.377 639.936C290.124 640.457 292.789 641.339 295.304 642.558C296.849 643.403 298.088 644.714 298.845 646.305C299.613 647.929 299.793 649.77 299.351 651.512C298.899 653.659 297.53 655.5 295.603 656.551C294.096 657.3 292.433 657.673 290.75 657.637L295.697 669.663C296.096 670.697 296.598 671.688 297.195 672.622C297.715 673.233 298.408 673.669 299.182 673.877L298.976 674.701L289.495 672.529L282.748 656.326L280.743 655.858V655.914ZM284.173 640.929L281.118 654.247L282.393 654.546C283.964 654.985 285.599 655.157 287.227 655.052C288.338 654.902 289.365 654.372 290.132 653.554C291.066 652.497 291.683 651.199 291.911 649.807C292.506 647.985 292.343 646.001 291.462 644.3C290.283 642.736 288.529 641.706 286.589 641.434L284.173 640.872V640.929ZM326.54 646.96L324.985 657.281L324.066 657.131C324.136 654.689 323.368 652.299 321.893 650.351C320.651 648.618 318.795 647.425 316.703 647.016C315.372 646.717 313.978 646.938 312.805 647.634C311.821 648.178 311.134 649.133 310.931 650.238C310.822 650.866 310.88 651.512 311.1 652.111C311.516 653.04 312.108 653.88 312.842 654.584C314.272 655.835 315.767 657.011 317.321 658.105C319.883 659.735 322.077 661.878 323.767 664.399C324.736 666.143 325.068 668.17 324.704 670.131C324.272 672.68 322.755 674.915 320.544 676.256C318.112 677.762 315.196 678.285 312.393 677.717C311.46 677.56 310.548 677.296 309.676 676.931C308.612 676.464 307.59 675.906 306.621 675.263C306.101 674.9 305.515 674.64 304.897 674.495C304.44 674.435 303.974 674.522 303.567 674.739C303.02 675.007 302.564 675.43 302.255 675.957L301.449 675.825L303.474 664.174L304.26 664.306C304.213 667.228 305.114 670.086 306.827 672.454C308.191 674.362 310.238 675.67 312.543 676.106C314.016 676.44 315.559 676.193 316.853 675.413C318.677 674.396 319.476 672.193 318.726 670.243C318.411 669.404 317.926 668.64 317.302 667.996C316.149 666.844 314.894 665.797 313.554 664.867C311.587 663.534 309.758 662.002 308.101 660.297C307.11 659.211 306.346 657.937 305.853 656.551C305.388 655.228 305.283 653.805 305.553 652.43C305.915 650.043 307.277 647.923 309.301 646.604C311.443 645.173 314.07 644.667 316.591 645.199C317.574 645.36 318.531 645.651 319.439 646.061C320.297 646.466 321.113 646.955 321.875 647.522C322.472 648.013 323.16 648.382 323.898 648.609C324.241 648.695 324.605 648.627 324.892 648.421C325.319 647.953 325.637 647.397 325.828 646.792L326.521 646.923L326.54 646.96ZM342.992 679.459V680.265L326.727 679.028V678.242H327.758C328.517 678.326 329.283 678.217 329.988 677.923C330.429 677.697 330.779 677.328 330.981 676.874C331.292 675.938 331.457 674.958 331.468 673.971L333.024 653.366C333.176 652.36 333.176 651.338 333.024 650.332C332.844 649.864 332.514 649.468 332.086 649.208C331.474 648.82 330.77 648.607 330.045 648.59H329.013V647.784L345.278 649.021V649.826L344.248 649.732C343.495 649.652 342.732 649.768 342.037 650.07C341.595 650.292 341.241 650.654 341.025 651.1C340.725 652.038 340.567 653.018 340.556 654.003L339.001 674.608C338.853 675.614 338.853 676.636 339.001 677.642C339.194 678.107 339.53 678.5 339.957 678.766C340.558 679.161 341.261 679.377 341.981 679.384H343.011L342.992 679.459ZM375.11 649.639L374.941 658.105H374.136C373.866 656.614 373.34 655.183 372.58 653.872C371.97 652.973 371.129 652.256 370.144 651.793C369.17 651.428 368.13 651.263 367.09 651.306H364.729L364.242 675.488C364.163 676.503 364.232 677.526 364.448 678.523C364.658 678.98 365.013 679.356 365.46 679.59C366.095 679.944 366.813 680.119 367.539 680.096H368.552V680.902L352.25 680.583V679.778H353.205C353.962 679.826 354.721 679.671 355.397 679.328C355.828 679.083 356.165 678.701 356.353 678.242C356.602 677.283 356.703 676.29 356.652 675.301L357.122 651.119H354.854C353.22 650.952 351.585 651.4 350.263 652.374C348.812 653.784 347.887 655.648 347.64 657.656H346.74L346.909 649.189L375.016 649.732L375.11 649.639ZM408.428 645.593L408.521 646.398C407.677 646.587 406.906 647.009 406.291 647.616C405.067 649.386 404.089 651.313 403.387 653.348L398.14 665.542L399.151 673.034C399.213 674.05 399.434 675.048 399.807 675.994C400.077 676.41 400.471 676.732 400.932 676.912C401.584 677.155 402.288 677.219 402.975 677.099L404.717 676.856L404.829 677.661L387.44 679.984L387.328 679.178L388.958 678.972C389.71 678.899 390.427 678.628 391.038 678.186C391.435 677.882 391.72 677.453 391.843 676.968C391.935 675.986 391.884 674.996 391.693 674.027L390.869 667.79L381.763 655.408C380.724 653.818 379.461 652.387 378.014 651.156C377.306 650.766 376.493 650.609 375.691 650.706L375.578 649.901L390.457 647.915L390.569 648.721H389.914C389.237 648.747 388.585 648.976 388.04 649.377C387.753 649.584 387.592 649.922 387.609 650.276C388.178 651.725 388.989 653.068 390.007 654.247L396.996 663.725L401.363 653.666C402.164 652.147 402.661 650.487 402.824 648.777C402.768 648.346 402.49 647.977 402.093 647.803C401.153 647.432 400.129 647.324 399.133 647.485L399.02 646.698L408.484 645.424L408.428 645.593ZM443.336 637.032C451.347 633.962 460.331 637.965 463.402 645.973C463.617 646.535 463.801 647.108 463.949 647.691C465.062 651.311 464.902 655.204 463.499 658.724C461.614 663.433 457.552 666.926 452.612 668.089C447.866 669.74 442.617 669.045 438.465 666.216C435.256 663.966 432.958 660.645 431.981 656.85C430.659 652.688 431.142 648.165 433.312 644.375C435.418 640.55 439.072 637.819 443.336 636.883V637.032ZM444.012 638.362C441.248 639.157 439.235 641.537 438.915 644.394C438.491 647.91 438.87 651.478 440.02 654.827C441.501 659.941 443.505 663.481 446.016 665.411C447.733 666.748 450.006 667.134 452.069 666.441C453.444 666.1 454.674 665.324 455.573 664.231C456.691 662.646 457.299 660.758 457.316 658.817C457.37 655.957 456.944 653.108 456.06 650.388C455.305 647.331 454.038 644.424 452.313 641.79C451.33 640.292 449.92 639.123 448.265 638.437C446.864 637.986 445.357 637.986 443.955 638.437L444.012 638.362ZM471.501 629.446L474.18 628.378C475.75 627.678 477.39 627.144 479.071 626.786C480.551 626.526 482.077 626.728 483.437 627.367C484.889 628.249 486.034 629.557 486.716 631.113L487.597 630.757L484.262 622.422L459.751 632.181L460.052 632.93L461.007 632.556C461.668 632.248 462.4 632.125 463.125 632.2C463.625 632.26 464.093 632.469 464.473 632.799C465.047 633.638 465.501 634.552 465.823 635.515L473.487 654.696C473.909 655.592 474.193 656.545 474.33 657.525C474.351 658.019 474.192 658.506 473.881 658.892C473.38 659.475 472.733 659.915 472.006 660.166L471.051 660.54L471.351 661.29L486.51 655.258L486.247 654.453L485.292 654.827C484.638 655.133 483.911 655.249 483.193 655.165C482.693 655.12 482.221 654.915 481.844 654.584C481.253 653.752 480.793 652.836 480.476 651.868L476.916 642.952L477.759 642.614C479.23 642.023 480.849 641.91 482.388 642.296C483.937 642.684 485.399 644.201 486.773 646.848L487.522 646.567L481.713 631.975L480.963 632.275C481.393 633.616 481.522 635.036 481.339 636.433C481.188 637.463 480.738 638.428 480.045 639.205C479.219 640.037 478.222 640.676 477.122 641.078L476.298 641.416L471.519 629.428L471.501 629.446ZM524.324 598.876L528.859 606.013L528.184 606.444C527.129 605.358 525.9 604.453 524.548 603.765C523.537 603.368 522.441 603.233 521.363 603.372C520.344 603.61 519.381 604.05 518.534 604.664L516.548 605.938L529.533 626.356C530.035 627.243 530.667 628.051 531.407 628.753C531.838 629.021 532.344 629.146 532.851 629.109C533.574 629.044 534.267 628.785 534.855 628.36L535.717 627.817L536.148 628.491L522.376 637.239L521.944 636.564L522.825 636.021C523.479 635.635 524.02 635.086 524.399 634.429C524.619 633.981 524.684 633.475 524.586 632.987C524.269 632.052 523.807 631.173 523.219 630.383L510.233 609.947L508.358 611.164C506.903 611.927 505.783 613.202 505.211 614.742C504.785 616.722 505.042 618.79 505.942 620.605L505.192 621.073L500.658 613.937L524.399 598.858L524.324 598.876ZM535.211 592.976L537.797 590.99C539.032 589.938 540.399 589.05 541.863 588.349C543.141 587.836 544.541 587.707 545.892 587.975C547.578 588.514 549.114 589.445 550.371 590.691L551.082 590.129L545.461 582.805L524.756 598.858L525.243 599.495L526.067 598.858C526.711 598.299 527.521 597.97 528.372 597.921C528.889 597.895 529.396 598.062 529.795 598.389C530.422 599.008 530.991 599.678 531.501 600.394L544.168 616.709C544.818 617.452 545.362 618.286 545.779 619.181C545.952 619.646 545.952 620.159 545.779 620.624C545.465 621.319 544.974 621.918 544.356 622.366L543.532 622.984L544.037 623.621L565.399 607.043L560.302 598.258L559.627 598.802C560.675 601.047 560.952 603.576 560.415 605.994C559.679 608.394 558.162 610.477 556.104 611.914L554.606 613.056C554.108 613.498 553.511 613.807 552.863 613.955C552.436 614.019 551.997 613.933 551.626 613.712C550.822 613.019 550.11 612.226 549.509 611.352L544.112 604.383C545 603.615 546.051 603.059 547.185 602.754C548.234 602.619 549.301 602.808 550.239 603.297C551.599 603.992 552.825 604.925 553.856 606.051L554.55 605.507L544.506 592.545L543.794 593.088C544.918 594.692 545.613 596.556 545.817 598.502C545.8 600.173 544.94 601.724 543.532 602.623L543.043 603.016L535.211 592.92V592.976ZM569.465 559.653L576.96 567.539L576.305 568.157C574.197 566.649 571.642 565.89 569.053 566.003C566.759 566.121 564.585 567.057 562.926 568.644C561.527 569.963 560.578 571.684 560.208 573.57C559.799 575.447 559.956 577.403 560.658 579.19C561.632 581.67 563.092 583.929 564.949 585.839C566.722 587.735 568.761 589.363 571.002 590.672C572.796 591.781 574.891 592.305 576.998 592.171C579.082 591.914 581.013 590.947 582.47 589.436C583.85 588.155 584.892 586.553 585.505 584.772C586.146 582.573 586.374 580.274 586.179 577.991L588.053 579.864C588.098 582.146 587.684 584.414 586.835 586.532C585.904 588.61 584.552 590.474 582.863 592.002C580.67 594.169 577.981 595.771 575.03 596.666C572.313 597.5 569.409 597.5 566.692 596.666C564.001 595.853 561.572 594.347 559.646 592.302C555.467 587.844 553.994 581.49 555.786 575.649C556.64 572.791 558.229 570.208 560.396 568.157C562.158 566.546 564.203 565.276 566.429 564.411C567.323 564.111 568.174 563.695 568.959 563.174C569.304 562.837 569.504 562.382 569.521 561.901C569.482 561.262 569.238 560.651 568.828 560.159L569.484 559.54L569.465 559.653ZM590.658 561.001L597.854 552.535L605.349 558.847C606.14 559.435 606.835 560.143 607.41 560.945C607.657 561.383 607.744 561.893 607.654 562.388C607.494 563.124 607.139 563.804 606.623 564.354L605.949 565.141L606.567 565.666L617.136 553.247L616.535 552.722L615.861 553.49C615.428 554.069 614.846 554.515 614.175 554.783C613.708 554.983 613.187 555.022 612.694 554.895C611.793 554.425 610.961 553.831 610.221 553.134L594.48 539.741C593.69 539.153 592.995 538.445 592.42 537.643C592.172 537.205 592.086 536.695 592.175 536.201C592.343 535.457 592.707 534.772 593.225 534.215L593.881 533.447L593.263 532.923L582.694 545.342L583.312 545.866L583.968 545.098C584.404 544.516 584.996 544.068 585.674 543.806C586.138 543.596 586.663 543.557 587.154 543.693C588.055 544.154 588.883 544.748 589.609 545.454L596.392 551.224L589.177 559.671L582.413 553.921C581.623 553.333 580.927 552.625 580.352 551.823C580.105 551.385 580.018 550.875 580.108 550.381C580.268 549.644 580.623 548.965 581.139 548.414L581.814 547.627L581.195 547.103L570.57 559.428L571.17 559.952L571.845 559.166C572.287 558.591 572.875 558.145 573.55 557.873C574.015 557.688 574.526 557.656 575.011 557.78C575.916 558.242 576.751 558.836 577.485 559.54L593.225 572.933C594.016 573.522 594.711 574.23 595.287 575.031C595.54 575.46 595.631 575.964 595.549 576.455C595.379 577.197 595.016 577.882 594.499 578.44L593.825 579.227L594.443 579.752L605.011 567.333L604.393 566.808L603.738 567.595C603.292 568.162 602.703 568.603 602.032 568.869C601.569 569.06 601.058 569.099 600.571 568.981C599.664 568.52 598.83 567.926 598.098 567.22L590.602 560.908L590.658 561.001ZM598.285 525.206L623.038 522.808L611.795 515.446C610.732 514.579 609.417 514.079 608.047 514.023C606.685 514.285 605.525 515.173 604.918 516.42L604.243 515.99L609.865 507.317L610.521 507.767C610.086 508.576 609.783 509.449 609.621 510.352C609.625 510.938 609.816 511.509 610.165 511.981C610.854 512.796 611.679 513.485 612.601 514.023L634.45 528.296L634.019 528.952L600.552 532.361L617.286 543.281C618.318 544.166 619.697 544.533 621.033 544.274C622.009 543.935 622.841 543.274 623.394 542.401L623.787 541.783L624.462 542.232L618.372 551.598L617.698 551.167C619.226 549.652 619.237 547.185 617.724 545.657C617.334 545.265 616.866 544.96 616.348 544.761L597.798 532.623L596.804 532.698C595.989 532.722 595.188 532.908 594.443 533.241C593.806 533.648 593.268 534.191 592.869 534.834L592.194 534.403L598.266 525.037L598.285 525.206ZM617.417 492.257C615.147 495.971 614.593 500.486 615.898 504.638C617.143 508.819 620.087 512.286 624.012 514.191C627.442 516.07 631.424 516.673 635.255 515.896C640.17 514.843 644.295 511.52 646.367 506.942C648.934 502.561 649.194 497.202 647.061 492.594C645.485 489.149 642.773 486.353 639.378 484.671C631.905 480.479 622.448 483.138 618.254 490.608C617.956 491.142 617.688 491.691 617.454 492.257H617.417ZM618.84 492.688C617.505 495.23 617.846 498.328 619.703 500.517C621.948 503.258 624.794 505.444 628.023 506.905C632.763 509.359 636.698 510.352 639.828 509.846C641.977 509.539 643.827 508.164 644.737 506.193C645.436 504.961 645.724 503.537 645.561 502.128C645.205 500.223 644.278 498.472 642.901 497.108C640.86 495.108 638.505 493.456 635.93 492.219C633.204 490.65 630.234 489.546 627.141 488.96C625.383 488.642 623.568 488.857 621.932 489.578C620.617 490.258 619.553 491.341 618.897 492.669L618.84 492.688ZM654.894 457.941L664.675 463.055L654.518 488.885L653.769 488.586L654.162 487.63C654.461 486.928 654.577 486.16 654.5 485.401C654.424 484.91 654.172 484.463 653.788 484.146C652.986 483.575 652.102 483.133 651.164 482.835L631.92 475.342C631 474.915 630.021 474.625 629.016 474.481C628.517 474.522 628.047 474.719 627.667 475.043C627.111 475.515 626.696 476.131 626.467 476.822L626.092 477.777L625.343 477.496L631.433 461.949L632.182 462.249L631.695 463.523C631.382 464.221 631.261 464.991 631.339 465.752C631.416 466.248 631.661 466.705 632.032 467.044C632.839 467.617 633.73 468.061 634.674 468.355L653.282 475.661C654.222 476.086 655.22 476.376 656.242 476.522C656.75 476.491 657.224 476.255 657.555 475.867C658.062 475.086 658.465 474.243 658.753 473.357L659.709 470.94C660.279 469.625 660.517 468.191 660.403 466.763C660.249 465.4 659.724 464.103 658.885 463.017C657.628 461.438 656.158 460.039 654.518 458.859L654.894 457.922V457.941ZM640.258 433.421C641.949 425.013 650.14 419.567 658.549 421.259C659.137 421.377 659.718 421.529 660.29 421.714C663.944 422.716 667.148 424.928 669.378 427.989C672.352 432.104 673.135 437.409 671.477 442.206C670.337 447.101 666.944 451.166 662.332 453.164C658.731 454.663 654.716 454.843 650.996 453.67C646.771 452.561 643.208 449.725 641.177 445.859C639.078 442.043 638.743 437.503 640.258 433.421ZM641.739 433.571C640.946 436.315 641.876 439.269 644.1 441.064C646.838 443.291 650.038 444.877 653.469 445.709C658.604 447.189 662.651 447.395 665.631 446.29C667.676 445.569 669.219 443.864 669.734 441.757C670.174 440.406 670.174 438.949 669.734 437.598C668.988 435.806 667.714 434.285 666.08 433.234C663.693 431.659 661.058 430.494 658.285 429.787C655.311 428.772 652.19 428.264 649.046 428.289C647.261 428.324 645.524 428.892 644.063 429.918C642.94 430.846 642.14 432.104 641.777 433.515L641.739 433.571Z" fill="#231815"/>
<path fill-rule="evenodd" clip-rule="evenodd" d="M648.116 387.117L659.04 388.578V389.384C656.217 389.835 653.601 391.142 651.545 393.13C649.794 394.849 648.667 397.105 648.341 399.536C647.975 401.636 648.395 403.796 649.521 405.605C650.732 407.428 652.482 408.829 654.524 409.614C656.777 410.558 659.147 411.187 661.57 411.487C664.208 411.901 666.896 411.901 669.534 411.487C671.597 411.23 673.504 410.264 674.931 408.752C676.219 407.244 677.03 405.384 677.254 403.413C677.329 402.634 677.329 401.851 677.254 401.072C677.2 400.233 677.075 399.399 676.88 398.581L670.452 397.719C669.646 397.582 668.822 397.582 668.016 397.719C667.555 397.891 667.162 398.206 666.892 398.618C666.495 399.169 666.257 399.815 666.199 400.491L666.086 401.297L665.28 401.184L667.304 386.106L668.109 386.218C668.003 387.038 668.053 387.87 668.259 388.672C668.463 389.185 668.841 389.61 669.328 389.871C670.002 390.168 670.727 390.339 671.464 390.376L677.872 391.238C678.491 393.338 678.886 395.498 679.053 397.682C679.21 399.937 679.135 402.203 678.828 404.444C678.577 406.948 677.839 409.378 676.654 411.599C675.646 413.38 674.348 414.982 672.813 416.338C671.387 417.601 669.734 418.58 667.941 419.223C665.598 420.021 663.099 420.246 660.652 419.878C656.155 419.395 652.069 417.035 649.408 413.379C646.631 409.647 645.489 404.949 646.242 400.36C646.412 398.953 646.719 397.567 647.161 396.221C647.582 395.151 648.077 394.111 648.64 393.111C649.131 392.302 649.534 391.44 649.84 390.545C649.893 390.105 649.786 389.659 649.54 389.29C649.097 388.75 648.532 388.327 647.891 388.054L647.985 387.248L648.116 387.117ZM649.99 352.426H650.795C650.855 353.29 651.153 354.12 651.657 354.824C653.228 356.296 654.985 357.557 656.885 358.57L668.128 365.595L675.717 365.744C676.74 365.823 677.769 365.754 678.772 365.538C679.217 365.336 679.587 364.995 679.822 364.564C680.172 363.963 680.346 363.276 680.327 362.579V360.818H681.133L680.777 378.351H679.99V376.721C680.043 375.962 679.887 375.206 679.541 374.53C679.302 374.087 678.918 373.745 678.453 373.555C677.5 373.308 676.513 373.207 675.53 373.256L669.234 373.125L655.611 380.243C653.891 381.012 652.288 382.02 650.852 383.24C650.331 383.929 650.054 384.774 650.065 385.637H649.277L649.558 370.652H650.365V371.308C650.305 371.956 650.436 372.606 650.739 373.181C650.906 373.488 651.215 373.692 651.563 373.724C653.078 373.385 654.522 372.789 655.836 371.963L666.292 366.494L656.923 360.649C655.548 359.614 653.971 358.874 652.294 358.477C651.865 358.465 651.46 358.679 651.226 359.039C650.732 359.919 650.473 360.914 650.477 361.923H649.671L649.99 352.426Z" fill="#231815"/>
</svg>
